<svg width="245" height="80" viewBox="0 0 245 80" fill="none" xmlns="http://www.w3.org/2000/svg">
    <path fill-rule="evenodd" clip-rule="evenodd" d="M51.2908 10.0775C53.2468 9.69883 55.2689 9.5 57.3384 9.5C74.5108 9.5 88.4317 23.1678 88.4317 40.028C88.4317 56.8882 74.5108 70.556 57.3384 70.556C55.2689 70.556 53.2468 70.3572 51.2908 69.9783V10.0775Z" fill="#8F73FF"/>
    <path fill-rule="evenodd" clip-rule="evenodd" d="M36.7986 17.1108C40.0268 14.3196 43.8491 12.1754 48.0552 10.8848V69.1706C43.8491 67.8799 40.0268 65.7358 36.7986 62.9446V17.1108Z" fill="#6ED200"/>
    <path fill-rule="evenodd" clip-rule="evenodd" d="M118.663 28.5972V27.1H123.795V33.6364C123.71 33.7484 123.567 33.9109 123.367 34.124C123.173 34.337 122.745 34.7014 122.083 35.2227C121.42 35.7439 120.718 36.2035 119.976 36.6014C119.234 36.9995 118.263 37.3639 117.065 37.6945C115.866 38.0252 114.633 38.1877 113.359 38.1877C109.7 38.1877 106.617 36.9827 104.1 34.5835C101.588 32.1789 100.332 29.2867 100.332 25.9012C100.332 22.5212 101.588 19.6289 104.1 17.2355C106.617 14.8365 109.7 13.6372 113.359 13.6372C114.621 13.6372 115.82 13.7995 116.956 14.119C118.092 14.4442 119.028 14.8365 119.759 15.2962C120.49 15.7557 121.135 16.2154 121.7 16.6752C122.26 17.1347 122.665 17.5214 122.911 17.841L123.293 18.3342L120.033 21.5347L120.018 21.5154C119.952 21.4284 119.865 21.3159 119.759 21.1649C119.639 21.0079 119.377 20.7389 118.971 20.352C118.566 19.9709 118.121 19.6347 117.641 19.343C117.162 19.0517 116.534 18.7827 115.752 18.536C114.969 18.295 114.176 18.1717 113.359 18.1717C111.116 18.1717 109.243 18.9059 107.742 20.3857C106.235 21.8654 105.481 23.7039 105.481 25.9012C105.481 28.104 106.235 29.9424 107.742 31.4222C109.243 32.8964 111.116 33.6364 113.359 33.6364C114.433 33.6364 115.403 33.4794 116.288 33.171C117.167 32.8572 117.784 32.5434 118.144 32.2237L118.663 31.7979V28.5972ZM128.58 14.295H133.209V37.8422H128.58V14.295ZM141.59 29.4437C141.59 28.2106 141.996 27.1736 142.806 26.3327C143.623 25.4864 144.588 25.0661 145.701 25.0661C146.82 25.0661 147.779 25.4864 148.595 26.3327C149.412 27.1736 149.817 28.2106 149.817 29.4437C149.817 30.6712 149.412 31.7082 148.595 32.5434C147.779 33.3841 146.82 33.8046 145.701 33.8046C144.588 33.8046 143.623 33.3841 142.806 32.5434C141.996 31.7082 141.59 30.6712 141.59 29.4437ZM154.601 29.4324C154.601 27.1456 153.716 25.1446 151.946 23.4294C150.182 21.7197 148.099 20.8622 145.701 20.8622C143.303 20.8622 141.219 21.7197 139.449 23.4294C137.674 25.1446 136.789 27.1456 136.789 29.4324C136.789 31.7194 137.674 33.7204 139.449 35.4356C141.219 37.1507 143.303 38.0084 145.701 38.0084C148.099 38.0084 150.182 37.1507 151.946 35.4356C153.716 33.7204 154.601 31.7194 154.601 29.4324ZM201.922 14.295H206.552V37.8422H201.922V14.295ZM162.999 29.4437C162.999 28.2107 163.404 27.1735 164.215 26.3329C165.031 25.4865 165.996 25.066 167.11 25.066C168.228 25.066 169.188 25.4865 170.004 26.3329C170.82 27.1735 171.226 28.2107 171.226 29.4437C171.226 30.671 170.82 31.708 170.004 32.5432C169.188 33.3842 168.228 33.8042 167.11 33.8042C165.996 33.8042 165.031 33.3842 164.215 32.5432C163.404 31.708 162.999 30.671 162.999 29.4437ZM162.845 14.1304H158.215V28.8817C158.204 29.0634 158.198 29.2469 158.198 29.4324C158.198 31.7194 159.083 33.7204 160.858 35.4355C162.628 37.1507 164.712 38.0084 167.11 38.0084C169.507 38.0084 171.591 37.1507 173.355 35.4355C175.125 33.7204 176.01 31.7194 176.01 29.4324C176.01 27.1455 175.125 25.1445 173.355 23.4292C171.591 21.7197 169.507 20.8622 167.11 20.8622C165.556 20.8622 164.135 21.2222 162.845 21.94V14.1304ZM191.12 26.3327C191.931 27.1736 192.336 28.2106 192.336 29.4437C192.336 30.6712 191.931 31.7082 191.12 32.5434C190.304 33.3841 189.339 33.8046 188.226 33.8046C187.107 33.8046 186.148 33.3841 185.332 32.5434C184.515 31.7082 184.11 30.6712 184.11 29.4437C184.11 28.2106 184.515 27.1736 185.332 26.3327C186.148 25.4864 187.107 25.0661 188.226 25.0661C189.339 25.0661 190.304 25.4864 191.12 26.3327ZM197.138 21.0327H192.508V21.9501C191.213 21.2254 189.786 20.8622 188.226 20.8622C185.828 20.8622 183.744 21.7197 181.98 23.4294C180.21 25.1446 179.326 27.1456 179.326 29.4324C179.326 31.7194 180.21 33.7204 181.98 35.4356C183.744 37.1507 185.828 38.0084 188.226 38.0084C189.786 38.0084 191.213 37.6451 192.508 36.9187V37.8379H197.138V29.4324V21.0327Z" fill="#8F73FF"/>
    <path d="M105.855 66.419V45.4844H108.144V66.419H105.855ZM114.524 45.4844H121.229C124.335 45.4844 126.959 46.511 129.111 48.564C131.263 50.6172 132.339 53.0789 132.339 55.9494C132.339 58.8245 131.263 61.2864 129.111 63.3394C126.959 65.3924 124.335 66.419 121.229 66.419H114.524V45.4844ZM121.229 47.5874H116.813V64.331H121.229C123.726 64.331 125.823 63.5187 127.518 61.8942C129.213 60.2697 130.061 58.2912 130.061 55.9592C130.061 53.627 129.213 51.6487 127.518 50.0242C125.823 48.3995 123.726 47.5874 121.229 47.5874Z" fill="#727271"/>
</svg>
